<svg xmlns="http://www.w3.org/2000/svg" width="1600" height="1000">
<defs>
  <linearGradient id="bg" x1="0" y1="0" x2="1" y2="1">
    <stop offset="0" stop-color="#ffffff"/>
    <stop offset="1" stop-color="#f0f7f4"/>
  </linearGradient>
  <linearGradient id="acc" x1="0" y1="0" x2="0" y2="1">
    <stop offset="0" stop-color="#18a866"/>
    <stop offset="1" stop-color="#0f7f4b"/>
  </linearGradient>
</defs>
<rect width="100%" height="100%" fill="url(#bg)"/>
<circle cx="1250" cy="240" r="330" fill="#18a866" opacity=".10"/>
<circle cx="1360" cy="770" r="260" fill="#18a866" opacity=".06"/>
<path d="M120 800 C420 720, 700 860, 980 790 C1220 730, 1380 760, 1480 720 L1480 1000 L120 1000 Z" fill="#0f1b17" opacity=".06"/>
<rect x="420" y="560" width="420" height="170" rx="26" fill="#0f1b17" opacity=".10"/>
<rect x="500" y="500" width="240" height="120" rx="22" fill="#0f1b17" opacity=".12"/>
<rect x="530" y="520" width="120" height="70" rx="16" fill="#ffffff" opacity=".55"/>
<rect x="420" y="710" width="420" height="80" rx="40" fill="#0f1b17" opacity=".10"/>
<circle cx="510" cy="750" r="22" fill="#0f1b17" opacity=".12"/>
<circle cx="600" cy="750" r="22" fill="#0f1b17" opacity=".12"/>
<circle cx="690" cy="750" r="22" fill="#0f1b17" opacity=".12"/>
<circle cx="780" cy="750" r="22" fill="#0f1b17" opacity=".12"/>
<path d="M720 560 L950 430 L990 470 L780 600 Z" fill="url(#acc)" opacity=".95"/>
<path d="M950 430 L1120 360 L1150 400 L990 470 Z" fill="url(#acc)" opacity=".85"/>
<path d="M1120 360 L1230 420 L1200 470 L1150 400 Z" fill="#0f1b17" opacity=".10"/>
<path d="M1230 420 L1320 470 L1280 560 L1200 470 Z" fill="#0f1b17" opacity=".12"/>
<rect x="120" y="120" width="560" height="170" rx="26" fill="#ffffff" opacity=".90"/>
<text x="160" y="185" font-family="system-ui,-apple-system,Segoe UI,Roboto,Arial" font-size="44" font-weight="900" fill="#0f1b17">Grunnarbeid</text>
<text x="160" y="240" font-family="system-ui,-apple-system,Segoe UI,Roboto,Arial" font-size="26" fill="#4a5b55">Graving • Planering • Drenering</text>
</svg>