<svg xmlns="http://www.w3.org/2000/svg" width="1600" height="1000">
<defs>
  <linearGradient id="bg" x1="0" y1="0" x2="1" y2="1">
    <stop offset="0" stop-color="#ffffff"/>
    <stop offset="1" stop-color="#eaf6f0"/>
  </linearGradient>
  <linearGradient id="acc" x1="0" y1="0" x2="0" y2="1">
    <stop offset="0" stop-color="#18a866"/>
    <stop offset="1" stop-color="#0f7f4b"/>
  </linearGradient>
</defs>
<rect width="100%" height="100%" fill="url(#bg)"/>
<circle cx="1280" cy="250" r="320" fill="#18a866" opacity=".10"/>
<circle cx="1400" cy="760" r="260" fill="#18a866" opacity=".06"/>
<path d="M280 670 L520 470 L760 670 Z" fill="#0f1b17" opacity=".10"/>
<path d="M330 670 V520 H710 V670 Z" fill="#0f1b17" opacity=".08"/>
<rect x="500" y="575" width="90" height="95" rx="10" fill="#0f1b17" opacity=".10"/>
<rect x="860" y="420" width="420" height="90" rx="18" fill="#0f1b17" opacity=".10"/>
<path d="M950 350 h260 a40 40 0 0 1 40 40 v40 h-340 v-40 a40 40 0 0 1 40-40z" fill="#0f1b17" opacity=".12"/>
<rect x="1080" y="500" width="90" height="360" rx="22" fill="url(#acc)" opacity=".95" transform="rotate(18 1080 500)"/>
<rect x="1045" y="515" width="160" height="52" rx="18" fill="#0f1b17" opacity=".12" transform="rotate(18 1045 515)"/>
<rect x="120" y="120" width="560" height="170" rx="26" fill="#ffffff" opacity=".90"/>
<text x="160" y="185" font-family="system-ui,-apple-system,Segoe UI,Roboto,Arial" font-size="44" font-weight="900" fill="#0f1b17">Tømrertjenester</text>
<text x="160" y="240" font-family="system-ui,-apple-system,Segoe UI,Roboto,Arial" font-size="26" fill="#4a5b55">Oppussing • Rehab • Tilpasninger</text>
</svg>